<?xml version="1.0" encoding="UTF-8"?>
<svg width="50px" height="50px" viewBox="0 0 50 50" version="1.1" xmlns="http://www.w3.org/2000/svg" xmlns:xlink="http://www.w3.org/1999/xlink">
    <!-- Generator: Sketch 56.2 (81672) - https://sketch.com -->
    <title>rocket</title>
    <desc>Created with Sketch.</desc>
    <g id="Page-1" stroke="none" stroke-width="1" fill="none" fill-rule="evenodd">
        <g id="About" transform="translate(-25.000000, -20.000000)" fill-rule="nonzero">
            <g id="Group-2">
                <g id="rocket" transform="translate(25.000000, 20.000000)">
                    <path d="M15.325736,34.597626 C17.5731699,36.7428921 17.5731699,40.2673343 15.325736,42.4126977 C13.078302,44.5579638 6.45624371,47.3545427 4.20880976,45.2092765 C1.96137581,43.0640104 4.8910392,36.7429894 7.13857506,34.5977233 C9.38600901,32.4523599 13.0381529,32.4523599 15.325736,34.597626 Z" id="Path" fill="#CB5858"></path>
                    <path d="M27.317149,22.6852449 C33.9911623,29.3620412 35.3180768,38.8500159 28.9953639,45.1753654 L25.9901355,48.181847 C19.6674226,54.5071965 24.038709,39.3185456 17.3646957,32.6417493 C10.6906825,25.9649529 -4.53068175,30.3771229 1.83107554,24.0127127 L4.83630399,21.0062311 C11.159116,14.6809807 20.6431358,16.0085477 27.317149,22.6852449 L27.317149,22.6852449 Z" id="Path" fill="#FFFFFF"></path>
                    <path d="M48.9607098,1.04202001 C50.9839529,3.03275005 50.0891025,15.6662067 37.6772768,27.9168755 C29.5843045,35.8414974 24.487273,38.6361985 24.487273,38.6361985 C19.0789507,42.2348707 16.4721482,39.7846592 13.0481451,36.4157763 C9.6241421,33.0468934 7.09518704,30.4818844 10.7914585,25.1604726 C10.7914585,25.1604726 13.6707271,20.107051 21.7247757,12.1441309 C34.1365026,-0.0681424726 46.9374668,-0.986911041 48.9607098,1.04202001 L48.9607098,1.04202001 Z" id="Path" fill="#FFFFFF"></path>
                    <path d="M35.972886,13.408585 C37.9088848,15.3445691 37.9088848,18.4659396 35.972886,20.402024 C34.0368873,22.338008 30.915493,22.338008 28.9793939,20.402024 C27.0433951,18.4660399 27.0433951,15.3446694 28.9793939,13.408585 C30.9153927,11.4725006 34.0764138,11.4725006 35.972886,13.408585 Z" id="Path" fill="#1D1D1D"></path>
                    <path d="M24.802561,25.8219904 C25.7784451,26.7576392 23.9047794,30.0885718 19.1423144,34.6546825 C14.3798495,39.2207932 11.4912484,40.4557812 10.5153644,39.4826912 C9.53948027,38.5470424 10.7886238,35.777442 15.5509896,31.2114264 C20.3524067,26.6454107 23.7876257,24.8489004 24.802561,25.8219904 Z" id="Path" fill="#1D1D1D"></path>
                </g>
            </g>
        </g>
    </g>
</svg>